<svg width="16" height="20" viewBox="0 0 16 20" fill="none" xmlns="http://www.w3.org/2000/svg">
<path d="M11.9471 10.3C11.8967 10.3457 11.8456 10.3904 11.7939 10.4342C11.7419 10.4791 11.6886 10.5234 11.6344 10.567C11.524 10.6557 11.4097 10.7408 11.2927 10.8225L8.87849 15.7823L8.39717 12.9262L9.11112 11.7783C9.0246 11.7971 8.937 11.8147 8.84857 11.83C8.62328 11.87 8.39392 11.8975 8.16128 11.9116C8.03422 11.9198 7.90608 11.9255 7.77684 11.9255C7.28137 11.9255 6.79978 11.8648 6.33723 11.7541L7.06205 12.927L6.60958 15.8342L3.9347 10.5789C3.81199 10.481 3.6923 10.3781 3.57666 10.2707L3.52824 10.3134C-0.0529443 13.41 -0.00344253 18.8288 0.000366657 19.0579L0.0039205 19.25H15.3275L15.3198 19.0468C15.0654 12.7861 12.5617 10.7158 11.9471 10.3Z" fill="#4FA800"/>
<path d="M7.77715 0C4.60573 0 2.02554 2.58044 2.02554 5.75186C2.02554 8.92355 4.60546 11.5037 7.77715 11.5037C10.9488 11.5037 13.5293 8.92382 13.5293 5.75186C13.5293 2.58071 10.9488 0 7.77715 0Z" fill="#4FA800"/>
</svg>
