<svg width="18" height="13" viewBox="0 0 18 13" fill="none" xmlns="http://www.w3.org/2000/svg">
<path d="M8.51011 7.37574C8.47427 7.40867 8.43785 7.44013 8.40084 7.47161C8.36296 7.50424 8.32537 7.53601 8.28661 7.5669C8.20736 7.631 8.12547 7.69192 8.04185 7.74991L6.31272 11.302L5.96829 9.2561L6.4794 8.43407C6.41704 8.44806 6.35439 8.46089 6.29145 8.47167C6.13001 8.50022 5.96596 8.52006 5.79899 8.52997C5.7075 8.53609 5.61629 8.53986 5.52392 8.53986C5.16871 8.53986 4.82399 8.49672 4.49268 8.41717L5.01223 9.25639L4.68791 11.3387L2.77229 7.57565C2.68429 7.50513 2.59862 7.43141 2.51616 7.35419L2.4809 7.38478C0.620937 8.99356 0.129064 11.4759 -2.28882e-05 12.7814H10.8681C10.5099 8.96413 8.92098 7.65402 8.51011 7.37574Z" fill="#D10373"/>
<path d="M5.52386 0C3.25304 0 1.40502 1.84773 1.40502 4.11856C1.40502 6.38968 3.25304 8.23797 5.52386 8.23797C7.79527 8.23797 9.64299 6.38968 9.64299 4.11856C9.64299 1.84773 7.79527 0 5.52386 0Z" fill="#D10373"/>
<path d="M17.3209 10.0682C17.3445 10.0522 17.3579 10.0251 17.3562 9.99595C17.3544 9.96739 17.3378 9.94172 17.3119 9.92861C17.3037 9.92395 16.6146 9.56701 16.4316 9.08417C16.6732 9.32282 16.9596 9.42131 17.3361 9.49095C17.3652 9.49678 17.3949 9.48542 17.4136 9.46211C17.4322 9.44025 17.4375 9.40761 17.4261 9.38022C17.068 8.50808 16.8899 7.47218 16.7174 6.47095C16.6123 5.85815 16.5097 5.26227 16.3698 4.7296C16.3244 4.49911 16.2533 4.27732 16.1591 4.06781C16.0586 3.80614 15.9409 3.56984 15.7984 3.36878C15.6431 3.14936 15.2252 2.55987 14.2732 2.36406C13.9667 2.26353 13.64 2.20874 13.3003 2.20874C12.6181 2.20874 12.0228 2.43341 11.5341 2.81047C11.0705 3.10303 10.7252 3.54535 10.4676 4.18583C10.3007 4.54629 10.1789 4.93821 10.1081 5.34557C10.0885 5.45863 10.0766 5.56794 10.0705 5.67517C10.0475 5.80921 10.0256 5.94759 10.0049 6.09067C9.90992 6.76291 9.9784 7.64002 10.1086 8.47282C10.6536 9.3435 11.197 10.709 11.3879 12.7822H17.6001C17.5549 12.2108 17.4142 11.2352 16.9721 10.2661C17.1796 10.1623 17.3078 10.0775 17.3209 10.0682ZM15.4114 9.57284C15.3625 9.63403 14.3898 10.2681 14.3898 10.2681L14.8683 10.9208L13.3536 12.1103L13.3562 12.1161L13.3516 12.1123L13.3466 12.1161L13.3495 12.1103L11.8352 10.9208L12.3133 10.2681C12.3133 10.2681 11.3404 9.63403 11.2914 9.57284C11.2046 9.46415 11.7265 8.96412 11.7265 8.96412L13.3519 12.1068L14.9772 8.96412C14.977 8.96412 15.4983 9.46415 15.4114 9.57284Z" fill="#D10373"/>
</svg>
