<svg width="24" height="24" viewBox="0 0 24 24" fill="none" xmlns="http://www.w3.org/2000/svg">
<path d="M2 17.2153C2 16.863 2.28562 16.5774 2.63796 16.5774H6.78469C7.13702 16.5774 7.42265 16.863 7.42265 17.2153V21.362C7.42265 21.7144 7.13702 22 6.78469 22H2.63796C2.28562 22 2 21.7144 2 21.362V17.2153Z" fill="#454F5B"/>
<path d="M2 9.92664C2 9.5743 2.28562 9.28868 2.63796 9.28868H6.78469C7.13702 9.28868 7.42265 9.5743 7.42265 9.92664V14.0734C7.42265 14.4257 7.13702 14.7113 6.78469 14.7113H2.63796C2.28562 14.7113 2 14.4257 2 14.0734V9.92664Z" fill="#454F5B"/>
<path d="M2 2.63796C2 2.28562 2.28562 2 2.63796 2H6.78469C7.13702 2 7.42265 2.28562 7.42265 2.63796V6.78469C7.42265 7.13702 7.13702 7.42265 6.78469 7.42265H2.63796C2.28562 7.42265 2 7.13702 2 6.78469V2.63796Z" fill="#454F5B"/>
<path d="M9.28867 17.2153C9.28867 16.863 9.57429 16.5774 9.92662 16.5774H14.0734C14.4257 16.5774 14.7113 16.863 14.7113 17.2153V21.362C14.7113 21.7144 14.4257 22 14.0734 22H9.92662C9.57429 22 9.28867 21.7144 9.28867 21.362V17.2153Z" fill="#454F5B"/>
<path d="M9.28867 9.92664C9.28867 9.5743 9.57429 9.28868 9.92662 9.28868H14.0734C14.4257 9.28868 14.7113 9.5743 14.7113 9.92664V14.0734C14.7113 14.4257 14.4257 14.7113 14.0734 14.7113H9.92662C9.57429 14.7113 9.28867 14.4257 9.28867 14.0734V9.92664Z" fill="#454F5B"/>
<path d="M9.28867 2.63796C9.28867 2.28562 9.57429 2 9.92662 2H14.0734C14.4257 2 14.7113 2.28562 14.7113 2.63796V6.78469C14.7113 7.13702 14.4257 7.42265 14.0734 7.42265H9.92662C9.57429 7.42265 9.28867 7.13702 9.28867 6.78469V2.63796Z" fill="#454F5B"/>
<path d="M16.5774 17.2153C16.5774 16.863 16.863 16.5774 17.2153 16.5774H21.362C21.7144 16.5774 22 16.863 22 17.2153V21.362C22 21.7144 21.7144 22 21.362 22H17.2153C16.863 22 16.5774 21.7144 16.5774 21.362V17.2153Z" fill="#454F5B"/>
<path d="M16.5774 9.92664C16.5774 9.5743 16.863 9.28868 17.2153 9.28868H21.362C21.7144 9.28868 22 9.5743 22 9.92664V14.0734C22 14.4257 21.7144 14.7113 21.362 14.7113H17.2153C16.863 14.7113 16.5774 14.4257 16.5774 14.0734V9.92664Z" fill="#454F5B"/>
<path d="M16.5774 2.63796C16.5774 2.28562 16.863 2 17.2153 2H21.362C21.7144 2 22 2.28562 22 2.63796V6.78469C22 7.13702 21.7144 7.42265 21.362 7.42265H17.2153C16.863 7.42265 16.5774 7.13702 16.5774 6.78469V2.63796Z" fill="#454F5B"/>
</svg>
